<svg width="16" height="9" viewBox="0 0 16 9" fill="none" xmlns="http://www.w3.org/2000/svg">
<path d="M6.22854 8.52127L4.94064 8.17614L5.46562 6.21694C4.67288 5.92494 3.94449 5.49987 3.30752 4.96894L1.87197 6.40447L0.929162 5.46167L2.36472 4.02614C1.57062 3.07354 1.01351 1.91645 0.783936 0.645459L2.09599 0.406906C2.60201 3.20841 5.05296 5.33341 8.00022 5.33341C10.9475 5.33341 13.3985 3.20841 13.9045 0.406906L15.2165 0.645459C14.9869 1.91645 14.4298 3.07354 13.6358 4.02614L15.0713 5.46167L14.1285 6.40447L12.693 4.96894C12.056 5.49987 11.3275 5.92494 10.5348 6.21694L11.0598 8.17614L9.77195 8.52127L9.24675 6.56121C8.84162 6.63061 8.42515 6.66674 8.00022 6.66674C7.57535 6.66674 7.15882 6.63061 6.75375 6.56121L6.22854 8.52127Z" fill="#A3A3A3"/>
</svg>
