<svg width="16" height="12" viewBox="0 0 16 12" fill="none" xmlns="http://www.w3.org/2000/svg">
<path d="M8.00028 0C11.595 0 14.5857 2.58651 15.2127 6C14.5857 9.41347 11.595 12 8.00028 12C4.4055 12 1.41485 9.41347 0.787842 6C1.41485 2.58651 4.4055 0 8.00028 0ZM8.00028 10.6667C10.824 10.6667 13.2403 8.70133 13.8519 6C13.2403 3.29869 10.824 1.33333 8.00028 1.33333C5.17648 1.33333 2.76023 3.29869 2.1486 6C2.76023 8.70133 5.17648 10.6667 8.00028 10.6667ZM8.00028 9C6.3434 9 5.00026 7.65687 5.00026 6C5.00026 4.34315 6.3434 3 8.00028 3C9.65708 3 11.0003 4.34315 11.0003 6C11.0003 7.65687 9.65708 9 8.00028 9ZM8.00028 7.66667C8.92075 7.66667 9.66695 6.92047 9.66695 6C9.66695 5.07953 8.92075 4.33333 8.00028 4.33333C7.07982 4.33333 6.33359 5.07953 6.33359 6C6.33359 6.92047 7.07982 7.66667 8.00028 7.66667Z" fill="#171717"/>
</svg>
